<?xml version="1.0" encoding="utf-8" standalone="no"?>
<!DOCTYPE svg PUBLIC "-//W3C//DTD SVG 1.1//EN"
  "http://www.w3.org/Graphics/SVG/1.1/DTD/svg11.dtd">
<!-- Created with matplotlib (http://matplotlib.org/) -->
<svg height="432pt" version="1.1" viewBox="0 0 432 432" width="432pt" xmlns="http://www.w3.org/2000/svg" xmlns:xlink="http://www.w3.org/1999/xlink">
 <defs>
  <style type="text/css">
*{stroke-linecap:butt;stroke-linejoin:round;}
  </style>
 </defs>
 <g id="figure_1">
  <g id="patch_1">
   <path d="M 0 432 
L 432 432 
L 432 0 
L 0 0 
z
" style="fill:#ffffff;"/>
  </g>
  <g id="axes_1">
   <g id="patch_2">
    <path d="M 54 378 
L 388.8 378 
L 388.8 51.84 
L 54 51.84 
z
" style="fill:#ffffff;"/>
   </g>
   <g id="line2d_1">
    <path clip-path="url(#p5dd0b718e2)" d="M 54 349.148573 
L 388.8 53.901459 
" style="fill:none;opacity:0.35;stroke:#000000;stroke-dasharray:7.4,3.2;stroke-dashoffset:0;stroke-width:2;"/>
   </g>
   <g id="line2d_2">
    <path clip-path="url(#p5dd0b718e2)" d="M 54 398.157775 
L 388.8 53.342669 
" style="fill:none;opacity:0.35;stroke:#000000;stroke-dasharray:2,3.3;stroke-dashoffset:0;stroke-width:2;"/>
   </g>
   <g id="PathCollection_1">
    <defs>
     <path d="M -3.162278 3.162278 
L 3.162278 -3.162278 
M -3.162278 -3.162278 
L 3.162278 3.162278 
" id="m14b51d0016" style="stroke:#000000;"/>
    </defs>
    <g clip-path="url(#p5dd0b718e2)">
     <use style="stroke:#000000;" x="374.553191" xlink:href="#m14b51d0016" y="65.719149"/>
     <use style="stroke:#000000;" x="181.508936" xlink:href="#m14b51d0016" y="249.617872"/>
     <use style="stroke:#000000;" x="211.427234" xlink:href="#m14b51d0016" y="223.941447"/>
     <use style="stroke:#000000;" x="318.990638" xlink:href="#m14b51d0016" y="103.192851"/>
     <use style="stroke:#000000;" x="324.689362" xlink:href="#m14b51d0016" y="101.804936"/>
     <use style="stroke:#000000;" x="284.085957" xlink:href="#m14b51d0016" y="145.524255"/>
     <use style="stroke:#000000;" x="244.907234" xlink:href="#m14b51d0016" y="172.588596"/>
     <use style="stroke:#000000;" x="148.028936" xlink:href="#m14b51d0016" y="268.354723"/>
     <use style="stroke:#000000;" x="259.154043" xlink:href="#m14b51d0016" y="188.549617"/>
     <use style="stroke:#000000;" x="368.854468" xlink:href="#m14b51d0016" y="74.046638"/>
     <use style="stroke:#000000;" x="301.182128" xlink:href="#m14b51d0016" y="126.093447"/>
     <use style="stroke:#000000;" x="370.991489" xlink:href="#m14b51d0016" y="71.964766"/>
     <use style="stroke:#000000;" x="361.731064" xlink:href="#m14b51d0016" y="74.740596"/>
     <use style="stroke:#000000;" x="331.100426" xlink:href="#m14b51d0016" y="103.886809"/>
     <use style="stroke:#000000;" x="374.553191" xlink:href="#m14b51d0016" y="65.719149"/>
     <use style="stroke:#000000;" x="367.429787" xlink:href="#m14b51d0016" y="69.882894"/>
     <use style="stroke:#000000;" x="347.484255" xlink:href="#m14b51d0016" y="84.456"/>
     <use style="stroke:#000000;" x="374.553191" xlink:href="#m14b51d0016" y="65.719149"/>
     <use style="stroke:#000000;" x="369.566809" xlink:href="#m14b51d0016" y="69.882894"/>
     <use style="stroke:#000000;" x="374.553191" xlink:href="#m14b51d0016" y="65.719149"/>
     <use style="stroke:#000000;" x="280.524255" xlink:href="#m14b51d0016" y="157.321532"/>
     <use style="stroke:#000000;" x="321.12766" xlink:href="#m14b51d0016" y="121.929702"/>
     <use style="stroke:#000000;" x="356.03234" xlink:href="#m14b51d0016" y="85.843915"/>
     <use style="stroke:#000000;" x="331.812766" xlink:href="#m14b51d0016" y="101.110979"/>
     <use style="stroke:#000000;" x="346.059574" xlink:href="#m14b51d0016" y="85.149957"/>
     <use style="stroke:#000000;" x="332.525106" xlink:href="#m14b51d0016" y="99.723064"/>
     <use style="stroke:#000000;" x="331.812766" xlink:href="#m14b51d0016" y="102.498894"/>
     <use style="stroke:#000000;" x="46.876596" xlink:href="#m14b51d0016" y="346.077957"/>
     <use style="stroke:#000000;" x="277.674894" xlink:href="#m14b51d0016" y="156.627574"/>
     <use style="stroke:#000000;" x="374.553191" xlink:href="#m14b51d0016" y="65.719149"/>
     <use style="stroke:#000000;" x="265.565106" xlink:href="#m14b51d0016" y="151.075915"/>
     <use style="stroke:#000000;" x="374.553191" xlink:href="#m14b51d0016" y="65.719149"/>
     <use style="stroke:#000000;" x="363.868085" xlink:href="#m14b51d0016" y="78.90434"/>
     <use style="stroke:#000000;" x="369.566809" xlink:href="#m14b51d0016" y="80.292255"/>
     <use style="stroke:#000000;" x="349.621277" xlink:href="#m14b51d0016" y="90.701617"/>
     <use style="stroke:#000000;" x="145.891915" xlink:href="#m14b51d0016" y="296.113021"/>
     <use style="stroke:#000000;" x="356.03234" xlink:href="#m14b51d0016" y="90.00766"/>
     <use style="stroke:#000000;" x="357.457021" xlink:href="#m14b51d0016" y="79.598298"/>
     <use style="stroke:#000000;" x="175.097872" xlink:href="#m14b51d0016" y="228.799149"/>
     <use style="stroke:#000000;" x="195.043404" xlink:href="#m14b51d0016" y="214.226043"/>
     <use style="stroke:#000000;" x="177.234894" xlink:href="#m14b51d0016" y="241.98434"/>
     <use style="stroke:#000000;" x="78.219574" xlink:href="#m14b51d0016" y="316.237787"/>
     <use style="stroke:#000000;" x="76.082553" xlink:href="#m14b51d0016" y="324.565277"/>
     <use style="stroke:#000000;" x="118.822979" xlink:href="#m14b51d0016" y="303.746553"/>
     <use style="stroke:#000000;" x="288.36" xlink:href="#m14b51d0016" y="150.381957"/>
     <use style="stroke:#000000;" x="338.22383" xlink:href="#m14b51d0016" y="94.865362"/>
     <use style="stroke:#000000;" x="328.251064" xlink:href="#m14b51d0016" y="109.438468"/>
     <use style="stroke:#000000;" x="180.796596" xlink:href="#m14b51d0016" y="224.635404"/>
     <use style="stroke:#000000;" x="337.511489" xlink:href="#m14b51d0016" y="96.253277"/>
     <use style="stroke:#000000;" x="341.073191" xlink:href="#m14b51d0016" y="95.559319"/>
    </g>
   </g>
   <g id="PathCollection_2">
    <defs>
     <path d="M 0 3.162278 
C 0.838646 3.162278 1.643056 2.82908 2.236068 2.236068 
C 2.82908 1.643056 3.162278 0.838646 3.162278 0 
C 3.162278 -0.838646 2.82908 -1.643056 2.236068 -2.236068 
C 1.643056 -2.82908 0.838646 -3.162278 0 -3.162278 
C -0.838646 -3.162278 -1.643056 -2.82908 -2.236068 -2.236068 
C -2.82908 -1.643056 -3.162278 -0.838646 -3.162278 0 
C -3.162278 0.838646 -2.82908 1.643056 -2.236068 2.236068 
C -1.643056 2.82908 -0.838646 3.162278 0 3.162278 
z
" id="C0_0_884c383ba1"/>
    </defs>
    <g clip-path="url(#p5dd0b718e2)">
     <use style="fill:none;stroke:#000000;" x="331.100426" xlink:href="#C0_0_884c383ba1" y="106.662638"/>
    </g>
    <g clip-path="url(#p5dd0b718e2)">
     <use style="fill:none;stroke:#000000;" x="304.74383" xlink:href="#C0_0_884c383ba1" y="146.218213"/>
    </g>
    <g clip-path="url(#p5dd0b718e2)">
     <use style="fill:none;stroke:#000000;" x="249.181277" xlink:href="#C0_0_884c383ba1" y="202.428766"/>
    </g>
    <g clip-path="url(#p5dd0b718e2)">
     <use style="fill:none;stroke:#000000;" x="259.154043" xlink:href="#C0_0_884c383ba1" y="187.85566"/>
    </g>
    <g clip-path="url(#p5dd0b718e2)">
     <use style="fill:none;stroke:#000000;" x="319.702979" xlink:href="#C0_0_884c383ba1" y="121.235745"/>
    </g>
    <g clip-path="url(#p5dd0b718e2)">
     <use style="fill:none;stroke:#000000;" x="351.045957" xlink:href="#C0_0_884c383ba1" y="90.00766"/>
    </g>
    <g clip-path="url(#p5dd0b718e2)">
     <use style="fill:none;stroke:#000000;" x="262.003404" xlink:href="#C0_0_884c383ba1" y="175.364426"/>
    </g>
    <g clip-path="url(#p5dd0b718e2)">
     <use style="fill:none;stroke:#000000;" x="132.357447" xlink:href="#C0_0_884c383ba1" y="314.849872"/>
    </g>
    <g clip-path="url(#p5dd0b718e2)">
     <use style="fill:none;stroke:#000000;" x="248.468936" xlink:href="#C0_0_884c383ba1" y="208.674383"/>
    </g>
    <g clip-path="url(#p5dd0b718e2)">
     <use style="fill:none;stroke:#000000;" x="370.279149" xlink:href="#C0_0_884c383ba1" y="76.128511"/>
    </g>
    <g clip-path="url(#p5dd0b718e2)">
     <use style="fill:none;stroke:#000000;" x="302.606809" xlink:href="#C0_0_884c383ba1" y="144.830298"/>
    </g>
    <g clip-path="url(#p5dd0b718e2)">
     <use style="fill:none;stroke:#000000;" x="344.634894" xlink:href="#C0_0_884c383ba1" y="98.335149"/>
    </g>
    <g clip-path="url(#p5dd0b718e2)">
     <use style="fill:none;stroke:#000000;" x="323.264681" xlink:href="#C0_0_884c383ba1" y="130.257191"/>
    </g>
    <g clip-path="url(#p5dd0b718e2)">
     <use style="fill:none;stroke:#000000;" x="331.100426" xlink:href="#C0_0_884c383ba1" y="113.602213"/>
    </g>
    <g clip-path="url(#p5dd0b718e2)">
     <use style="fill:none;stroke:#000000;" x="372.41617" xlink:href="#C0_0_884c383ba1" y="73.352681"/>
    </g>
    <g clip-path="url(#p5dd0b718e2)">
     <use style="fill:none;stroke:#000000;" x="352.470638" xlink:href="#C0_0_884c383ba1" y="90.00766"/>
    </g>
    <g clip-path="url(#p5dd0b718e2)">
     <use style="fill:none;stroke:#000000;" x="341.073191" xlink:href="#C0_0_884c383ba1" y="99.723064"/>
    </g>
    <g clip-path="url(#p5dd0b718e2)">
     <use style="fill:none;stroke:#000000;" x="371.70383" xlink:href="#C0_0_884c383ba1" y="68.494979"/>
    </g>
    <g clip-path="url(#p5dd0b718e2)">
     <use style="fill:none;stroke:#000000;" x="360.306383" xlink:href="#C0_0_884c383ba1" y="83.762043"/>
    </g>
    <g clip-path="url(#p5dd0b718e2)">
     <use style="fill:none;stroke:#000000;" x="266.989787" xlink:href="#C0_0_884c383ba1" y="182.304"/>
    </g>
    <g clip-path="url(#p5dd0b718e2)">
     <use style="fill:none;stroke:#000000;" x="341.073191" xlink:href="#C0_0_884c383ba1" y="100.417021"/>
    </g>
    <g clip-path="url(#p5dd0b718e2)">
     <use style="fill:none;stroke:#000000;" x="320.415319" xlink:href="#C0_0_884c383ba1" y="126.787404"/>
    </g>
    <g clip-path="url(#p5dd0b718e2)">
     <use style="fill:none;stroke:#000000;" x="338.22383" xlink:href="#C0_0_884c383ba1" y="108.744511"/>
    </g>
    <g clip-path="url(#p5dd0b718e2)">
     <use style="fill:none;stroke:#000000;" x="311.867234" xlink:href="#C0_0_884c383ba1" y="123.317617"/>
    </g>
    <g clip-path="url(#p5dd0b718e2)">
     <use style="fill:none;stroke:#000000;" x="367.429787" xlink:href="#C0_0_884c383ba1" y="74.046638"/>
    </g>
    <g clip-path="url(#p5dd0b718e2)">
     <use style="fill:none;stroke:#000000;" x="319.702979" xlink:href="#C0_0_884c383ba1" y="120.541787"/>
    </g>
    <g clip-path="url(#p5dd0b718e2)">
     <use style="fill:none;stroke:#000000;" x="301.182128" xlink:href="#C0_0_884c383ba1" y="146.91217"/>
    </g>
    <g clip-path="url(#p5dd0b718e2)">
     <use style="fill:none;stroke:#000000;" x="262.003404" xlink:href="#C0_0_884c383ba1" y="181.610043"/>
    </g>
    <g clip-path="url(#p5dd0b718e2)">
     <use style="fill:none;stroke:#000000;" x="296.908085" xlink:href="#C0_0_884c383ba1" y="148.994043"/>
    </g>
    <g clip-path="url(#p5dd0b718e2)">
     <use style="fill:none;stroke:#000000;" x="374.553191" xlink:href="#C0_0_884c383ba1" y="65.719149"/>
    </g>
    <g clip-path="url(#p5dd0b718e2)">
     <use style="fill:none;stroke:#000000;" x="372.41617" xlink:href="#C0_0_884c383ba1" y="67.801021"/>
    </g>
    <g clip-path="url(#p5dd0b718e2)">
     <use style="fill:none;stroke:#000000;" x="321.12766" xlink:href="#C0_0_884c383ba1" y="123.317617"/>
    </g>
    <g clip-path="url(#p5dd0b718e2)">
     <use style="fill:none;stroke:#000000;" x="256.304681" xlink:href="#C0_0_884c383ba1" y="199.652936"/>
    </g>
    <g clip-path="url(#p5dd0b718e2)">
     <use style="fill:none;stroke:#000000;" x="367.429787" xlink:href="#C0_0_884c383ba1" y="76.822468"/>
    </g>
    <g clip-path="url(#p5dd0b718e2)">
     <use style="fill:none;stroke:#000000;" x="355.32" xlink:href="#C0_0_884c383ba1" y="90.701617"/>
    </g>
    <g clip-path="url(#p5dd0b718e2)">
     <use style="fill:none;stroke:#000000;" x="269.126809" xlink:href="#C0_0_884c383ba1" y="178.834213"/>
    </g>
    <g clip-path="url(#p5dd0b718e2)">
     <use style="fill:none;stroke:#000000;" x="365.292766" xlink:href="#C0_0_884c383ba1" y="77.516426"/>
    </g>
    <g clip-path="url(#p5dd0b718e2)">
     <use style="fill:none;stroke:#000000;" x="269.839149" xlink:href="#C0_0_884c383ba1" y="179.52817"/>
    </g>
    <g clip-path="url(#p5dd0b718e2)">
     <use style="fill:none;stroke:#000000;" x="235.646809" xlink:href="#C0_0_884c383ba1" y="212.838128"/>
    </g>
    <g clip-path="url(#p5dd0b718e2)">
     <use style="fill:none;stroke:#000000;" x="226.386383" xlink:href="#C0_0_884c383ba1" y="213.532085"/>
    </g>
    <g clip-path="url(#p5dd0b718e2)">
     <use style="fill:none;stroke:#000000;" x="323.977021" xlink:href="#C0_0_884c383ba1" y="119.84783"/>
    </g>
    <g clip-path="url(#p5dd0b718e2)">
     <use style="fill:none;stroke:#000000;" x="346.771915" xlink:href="#C0_0_884c383ba1" y="96.253277"/>
    </g>
    <g clip-path="url(#p5dd0b718e2)">
     <use style="fill:none;stroke:#000000;" x="220.68766" xlink:href="#C0_0_884c383ba1" y="214.92"/>
    </g>
    <g clip-path="url(#p5dd0b718e2)">
     <use style="fill:none;stroke:#000000;" x="347.484255" xlink:href="#C0_0_884c383ba1" y="92.783489"/>
    </g>
    <g clip-path="url(#p5dd0b718e2)">
     <use style="fill:none;stroke:#000000;" x="323.264681" xlink:href="#C0_0_884c383ba1" y="119.153872"/>
    </g>
    <g clip-path="url(#p5dd0b718e2)">
     <use style="fill:none;stroke:#000000;" x="358.169362" xlink:href="#C0_0_884c383ba1" y="85.149957"/>
    </g>
    <g clip-path="url(#p5dd0b718e2)">
     <use style="fill:none;stroke:#000000;" x="333.237447" xlink:href="#C0_0_884c383ba1" y="110.826383"/>
    </g>
    <g clip-path="url(#p5dd0b718e2)">
     <use style="fill:none;stroke:#000000;" x="325.401702" xlink:href="#C0_0_884c383ba1" y="118.459915"/>
    </g>
    <g clip-path="url(#p5dd0b718e2)">
     <use style="fill:none;stroke:#000000;" x="348.908936" xlink:href="#C0_0_884c383ba1" y="92.783489"/>
    </g>
    <g clip-path="url(#p5dd0b718e2)">
     <use style="fill:none;stroke:#000000;" x="374.553191" xlink:href="#C0_0_884c383ba1" y="65.719149"/>
    </g>
   </g>
   <g id="matplotlib.axis_1">
    <g id="xtick_1">
     <g id="line2d_3">
      <defs>
       <path d="M 0 0 
L 0 3.5 
" id="m811d98fc6f" style="stroke:#000000;stroke-width:0.8;"/>
      </defs>
      <g>
       <use style="stroke:#000000;stroke-width:0.8;" x="89.617021" xlink:href="#m811d98fc6f" y="378"/>
      </g>
     </g>
     <g id="text_1">
      <!-- 0.6 -->
      <defs>
       <path d="M 31.78125 66.40625 
Q 24.171875 66.40625 20.328125 58.90625 
Q 16.5 51.421875 16.5 36.375 
Q 16.5 21.390625 20.328125 13.890625 
Q 24.171875 6.390625 31.78125 6.390625 
Q 39.453125 6.390625 43.28125 13.890625 
Q 47.125 21.390625 47.125 36.375 
Q 47.125 51.421875 43.28125 58.90625 
Q 39.453125 66.40625 31.78125 66.40625 
z
M 31.78125 74.21875 
Q 44.046875 74.21875 50.515625 64.515625 
Q 56.984375 54.828125 56.984375 36.375 
Q 56.984375 17.96875 50.515625 8.265625 
Q 44.046875 -1.421875 31.78125 -1.421875 
Q 19.53125 -1.421875 13.0625 8.265625 
Q 6.59375 17.96875 6.59375 36.375 
Q 6.59375 54.828125 13.0625 64.515625 
Q 19.53125 74.21875 31.78125 74.21875 
z
" id="DejaVuSans-30"/>
       <path d="M 10.6875 12.40625 
L 21 12.40625 
L 21 0 
L 10.6875 0 
z
" id="DejaVuSans-2e"/>
       <path d="M 33.015625 40.375 
Q 26.375 40.375 22.484375 35.828125 
Q 18.609375 31.296875 18.609375 23.390625 
Q 18.609375 15.53125 22.484375 10.953125 
Q 26.375 6.390625 33.015625 6.390625 
Q 39.65625 6.390625 43.53125 10.953125 
Q 47.40625 15.53125 47.40625 23.390625 
Q 47.40625 31.296875 43.53125 35.828125 
Q 39.65625 40.375 33.015625 40.375 
z
M 52.59375 71.296875 
L 52.59375 62.3125 
Q 48.875 64.0625 45.09375 64.984375 
Q 41.3125 65.921875 37.59375 65.921875 
Q 27.828125 65.921875 22.671875 59.328125 
Q 17.53125 52.734375 16.796875 39.40625 
Q 19.671875 43.65625 24.015625 45.921875 
Q 28.375 48.1875 33.59375 48.1875 
Q 44.578125 48.1875 50.953125 41.515625 
Q 57.328125 34.859375 57.328125 23.390625 
Q 57.328125 12.15625 50.6875 5.359375 
Q 44.046875 -1.421875 33.015625 -1.421875 
Q 20.359375 -1.421875 13.671875 8.265625 
Q 6.984375 17.96875 6.984375 36.375 
Q 6.984375 53.65625 15.1875 63.9375 
Q 23.390625 74.21875 37.203125 74.21875 
Q 40.921875 74.21875 44.703125 73.484375 
Q 48.484375 72.75 52.59375 71.296875 
z
" id="DejaVuSans-36"/>
      </defs>
      <g transform="translate(81.665459 392.598437)scale(0.1 -0.1)">
       <use xlink:href="#DejaVuSans-30"/>
       <use x="63.623047" xlink:href="#DejaVuSans-2e"/>
       <use x="95.410156" xlink:href="#DejaVuSans-36"/>
      </g>
     </g>
    </g>
    <g id="xtick_2">
     <g id="line2d_4">
      <g>
       <use style="stroke:#000000;stroke-width:0.8;" x="160.851064" xlink:href="#m811d98fc6f" y="378"/>
      </g>
     </g>
     <g id="text_2">
      <!-- 0.7 -->
      <defs>
       <path d="M 8.203125 72.90625 
L 55.078125 72.90625 
L 55.078125 68.703125 
L 28.609375 0 
L 18.3125 0 
L 43.21875 64.59375 
L 8.203125 64.59375 
z
" id="DejaVuSans-37"/>
      </defs>
      <g transform="translate(152.899501 392.598437)scale(0.1 -0.1)">
       <use xlink:href="#DejaVuSans-30"/>
       <use x="63.623047" xlink:href="#DejaVuSans-2e"/>
       <use x="95.410156" xlink:href="#DejaVuSans-37"/>
      </g>
     </g>
    </g>
    <g id="xtick_3">
     <g id="line2d_5">
      <g>
       <use style="stroke:#000000;stroke-width:0.8;" x="232.085106" xlink:href="#m811d98fc6f" y="378"/>
      </g>
     </g>
     <g id="text_3">
      <!-- 0.8 -->
      <defs>
       <path d="M 31.78125 34.625 
Q 24.75 34.625 20.71875 30.859375 
Q 16.703125 27.09375 16.703125 20.515625 
Q 16.703125 13.921875 20.71875 10.15625 
Q 24.75 6.390625 31.78125 6.390625 
Q 38.8125 6.390625 42.859375 10.171875 
Q 46.921875 13.96875 46.921875 20.515625 
Q 46.921875 27.09375 42.890625 30.859375 
Q 38.875 34.625 31.78125 34.625 
z
M 21.921875 38.8125 
Q 15.578125 40.375 12.03125 44.71875 
Q 8.5 49.078125 8.5 55.328125 
Q 8.5 64.0625 14.71875 69.140625 
Q 20.953125 74.21875 31.78125 74.21875 
Q 42.671875 74.21875 48.875 69.140625 
Q 55.078125 64.0625 55.078125 55.328125 
Q 55.078125 49.078125 51.53125 44.71875 
Q 48 40.375 41.703125 38.8125 
Q 48.828125 37.15625 52.796875 32.3125 
Q 56.78125 27.484375 56.78125 20.515625 
Q 56.78125 9.90625 50.3125 4.234375 
Q 43.84375 -1.421875 31.78125 -1.421875 
Q 19.734375 -1.421875 13.25 4.234375 
Q 6.78125 9.90625 6.78125 20.515625 
Q 6.78125 27.484375 10.78125 32.3125 
Q 14.796875 37.15625 21.921875 38.8125 
z
M 18.3125 54.390625 
Q 18.3125 48.734375 21.84375 45.5625 
Q 25.390625 42.390625 31.78125 42.390625 
Q 38.140625 42.390625 41.71875 45.5625 
Q 45.3125 48.734375 45.3125 54.390625 
Q 45.3125 60.0625 41.71875 63.234375 
Q 38.140625 66.40625 31.78125 66.40625 
Q 25.390625 66.40625 21.84375 63.234375 
Q 18.3125 60.0625 18.3125 54.390625 
z
" id="DejaVuSans-38"/>
      </defs>
      <g transform="translate(224.133544 392.598437)scale(0.1 -0.1)">
       <use xlink:href="#DejaVuSans-30"/>
       <use x="63.623047" xlink:href="#DejaVuSans-2e"/>
       <use x="95.410156" xlink:href="#DejaVuSans-38"/>
      </g>
     </g>
    </g>
    <g id="xtick_4">
     <g id="line2d_6">
      <g>
       <use style="stroke:#000000;stroke-width:0.8;" x="303.319149" xlink:href="#m811d98fc6f" y="378"/>
      </g>
     </g>
     <g id="text_4">
      <!-- 0.9 -->
      <defs>
       <path d="M 10.984375 1.515625 
L 10.984375 10.5 
Q 14.703125 8.734375 18.5 7.8125 
Q 22.3125 6.890625 25.984375 6.890625 
Q 35.75 6.890625 40.890625 13.453125 
Q 46.046875 20.015625 46.78125 33.40625 
Q 43.953125 29.203125 39.59375 26.953125 
Q 35.25 24.703125 29.984375 24.703125 
Q 19.046875 24.703125 12.671875 31.3125 
Q 6.296875 37.9375 6.296875 49.421875 
Q 6.296875 60.640625 12.9375 67.421875 
Q 19.578125 74.21875 30.609375 74.21875 
Q 43.265625 74.21875 49.921875 64.515625 
Q 56.59375 54.828125 56.59375 36.375 
Q 56.59375 19.140625 48.40625 8.859375 
Q 40.234375 -1.421875 26.421875 -1.421875 
Q 22.703125 -1.421875 18.890625 -0.6875 
Q 15.09375 0.046875 10.984375 1.515625 
z
M 30.609375 32.421875 
Q 37.25 32.421875 41.125 36.953125 
Q 45.015625 41.5 45.015625 49.421875 
Q 45.015625 57.28125 41.125 61.84375 
Q 37.25 66.40625 30.609375 66.40625 
Q 23.96875 66.40625 20.09375 61.84375 
Q 16.21875 57.28125 16.21875 49.421875 
Q 16.21875 41.5 20.09375 36.953125 
Q 23.96875 32.421875 30.609375 32.421875 
z
" id="DejaVuSans-39"/>
      </defs>
      <g transform="translate(295.367586 392.598437)scale(0.1 -0.1)">
       <use xlink:href="#DejaVuSans-30"/>
       <use x="63.623047" xlink:href="#DejaVuSans-2e"/>
       <use x="95.410156" xlink:href="#DejaVuSans-39"/>
      </g>
     </g>
    </g>
    <g id="xtick_5">
     <g id="line2d_7">
      <g>
       <use style="stroke:#000000;stroke-width:0.8;" x="374.553191" xlink:href="#m811d98fc6f" y="378"/>
      </g>
     </g>
     <g id="text_5">
      <!-- 1.0 -->
      <defs>
       <path d="M 12.40625 8.296875 
L 28.515625 8.296875 
L 28.515625 63.921875 
L 10.984375 60.40625 
L 10.984375 69.390625 
L 28.421875 72.90625 
L 38.28125 72.90625 
L 38.28125 8.296875 
L 54.390625 8.296875 
L 54.390625 0 
L 12.40625 0 
z
" id="DejaVuSans-31"/>
      </defs>
      <g transform="translate(366.601629 392.598437)scale(0.1 -0.1)">
       <use xlink:href="#DejaVuSans-31"/>
       <use x="63.623047" xlink:href="#DejaVuSans-2e"/>
       <use x="95.410156" xlink:href="#DejaVuSans-30"/>
      </g>
     </g>
    </g>
    <g id="text_6">
     <!-- $\phi$ -->
     <defs>
      <path d="M 46.734375 75.984375 
L 42.78125 55.8125 
Q 52.546875 55.8125 57.5625 48.34375 
Q 62.75 40.71875 60.15625 27.296875 
Q 57.515625 13.875 49.359375 6.25 
Q 41.453125 -1.21875 31.6875 -1.21875 
L 27.875 -20.796875 
L 18.953125 -20.796875 
L 22.75 -1.21875 
Q 13.03125 -1.21875 7.953125 6.25 
Q 2.78125 13.875 5.421875 27.296875 
Q 8.015625 40.71875 16.15625 48.34375 
Q 24.125 55.8125 33.84375 55.8125 
L 37.796875 75.984375 
z
M 33.25 6.78125 
Q 38.765625 6.78125 43.5 11.8125 
Q 48.6875 17.4375 50.6875 27.296875 
Q 52.640625 37.0625 49.515625 42.78125 
Q 46.734375 47.796875 41.21875 47.796875 
z
M 24.3125 6.78125 
L 32.28125 47.796875 
Q 26.8125 47.796875 22.078125 42.78125 
Q 16.75 37.0625 14.890625 27.296875 
Q 13.03125 17.4375 16.0625 11.8125 
Q 18.796875 6.78125 24.3125 6.78125 
z
" id="DejaVuSans-Oblique-3d5"/>
     </defs>
     <g transform="translate(217.11 408.558125)scale(0.13 -0.13)">
      <use transform="translate(0 0.015625)" xlink:href="#DejaVuSans-Oblique-3d5"/>
     </g>
    </g>
   </g>
   <g id="matplotlib.axis_2">
    <g id="ytick_1">
     <g id="line2d_8">
      <defs>
       <path d="M 0 0 
L -3.5 0 
" id="mb1548bb6d0" style="stroke:#000000;stroke-width:0.8;"/>
      </defs>
      <g>
       <use style="stroke:#000000;stroke-width:0.8;" x="54" xlink:href="#mb1548bb6d0" y="343.302128"/>
      </g>
     </g>
     <g id="text_7">
      <!-- 0.6 -->
      <g transform="translate(31.096875 347.101346)scale(0.1 -0.1)">
       <use xlink:href="#DejaVuSans-30"/>
       <use x="63.623047" xlink:href="#DejaVuSans-2e"/>
       <use x="95.410156" xlink:href="#DejaVuSans-36"/>
      </g>
     </g>
    </g>
    <g id="ytick_2">
     <g id="line2d_9">
      <g>
       <use style="stroke:#000000;stroke-width:0.8;" x="54" xlink:href="#mb1548bb6d0" y="273.906383"/>
      </g>
     </g>
     <g id="text_8">
      <!-- 0.7 -->
      <g transform="translate(31.096875 277.705602)scale(0.1 -0.1)">
       <use xlink:href="#DejaVuSans-30"/>
       <use x="63.623047" xlink:href="#DejaVuSans-2e"/>
       <use x="95.410156" xlink:href="#DejaVuSans-37"/>
      </g>
     </g>
    </g>
    <g id="ytick_3">
     <g id="line2d_10">
      <g>
       <use style="stroke:#000000;stroke-width:0.8;" x="54" xlink:href="#mb1548bb6d0" y="204.510638"/>
      </g>
     </g>
     <g id="text_9">
      <!-- 0.8 -->
      <g transform="translate(31.096875 208.309857)scale(0.1 -0.1)">
       <use xlink:href="#DejaVuSans-30"/>
       <use x="63.623047" xlink:href="#DejaVuSans-2e"/>
       <use x="95.410156" xlink:href="#DejaVuSans-38"/>
      </g>
     </g>
    </g>
    <g id="ytick_4">
     <g id="line2d_11">
      <g>
       <use style="stroke:#000000;stroke-width:0.8;" x="54" xlink:href="#mb1548bb6d0" y="135.114894"/>
      </g>
     </g>
     <g id="text_10">
      <!-- 0.9 -->
      <g transform="translate(31.096875 138.914112)scale(0.1 -0.1)">
       <use xlink:href="#DejaVuSans-30"/>
       <use x="63.623047" xlink:href="#DejaVuSans-2e"/>
       <use x="95.410156" xlink:href="#DejaVuSans-39"/>
      </g>
     </g>
    </g>
    <g id="ytick_5">
     <g id="line2d_12">
      <g>
       <use style="stroke:#000000;stroke-width:0.8;" x="54" xlink:href="#mb1548bb6d0" y="65.719149"/>
      </g>
     </g>
     <g id="text_11">
      <!-- 1.0 -->
      <g transform="translate(31.096875 69.518368)scale(0.1 -0.1)">
       <use xlink:href="#DejaVuSans-31"/>
       <use x="63.623047" xlink:href="#DejaVuSans-2e"/>
       <use x="95.410156" xlink:href="#DejaVuSans-30"/>
      </g>
     </g>
    </g>
    <g id="text_12">
     <!-- $\lambda$ -->
     <defs>
      <path d="M 36.71875 67.4375 
L 48.828125 0 
L 39.3125 0 
L 31.84375 40.4375 
L 5.125 0 
L -4.390625 0 
L 29.734375 52.4375 
L 28.03125 62.109375 
Q 26.953125 68.265625 21.734375 68.265625 
L 17.046875 68.265625 
L 18.5 75.984375 
L 24.21875 75.875 
Q 35.203125 75.734375 36.71875 67.4375 
z
" id="DejaVuSans-Oblique-3bb"/>
     </defs>
     <g transform="translate(24.393281 218.82)rotate(-90)scale(0.13 -0.13)">
      <use transform="translate(0 0.015625)" xlink:href="#DejaVuSans-Oblique-3bb"/>
     </g>
    </g>
   </g>
   <g id="patch_3">
    <path d="M 54 378 
L 54 51.84 
" style="fill:none;stroke:#000000;stroke-linecap:square;stroke-linejoin:miter;stroke-width:0.8;"/>
   </g>
   <g id="patch_4">
    <path d="M 388.8 378 
L 388.8 51.84 
" style="fill:none;stroke:#000000;stroke-linecap:square;stroke-linejoin:miter;stroke-width:0.8;"/>
   </g>
   <g id="patch_5">
    <path d="M 54 378 
L 388.8 378 
" style="fill:none;stroke:#000000;stroke-linecap:square;stroke-linejoin:miter;stroke-width:0.8;"/>
   </g>
   <g id="patch_6">
    <path d="M 54 51.84 
L 388.8 51.84 
" style="fill:none;stroke:#000000;stroke-linecap:square;stroke-linejoin:miter;stroke-width:0.8;"/>
   </g>
   <g id="legend_1">
    <g id="patch_7">
     <path d="M 63.1 100.403125 
L 137.602188 100.403125 
Q 140.202188 100.403125 140.202188 97.803125 
L 140.202188 60.94 
Q 140.202188 58.34 137.602188 58.34 
L 63.1 58.34 
Q 60.5 58.34 60.5 60.94 
L 60.5 97.803125 
Q 60.5 100.403125 63.1 100.403125 
z
" style="fill:#ffffff;opacity:0.8;stroke:#cccccc;stroke-linejoin:miter;"/>
    </g>
    <g id="PathCollection_3">
     <g>
      <use style="stroke:#000000;" x="78.7" xlink:href="#m14b51d0016" y="70.005469"/>
     </g>
    </g>
    <g id="text_13">
     <!-- drive -->
     <defs>
      <path d="M 45.40625 46.390625 
L 45.40625 75.984375 
L 54.390625 75.984375 
L 54.390625 0 
L 45.40625 0 
L 45.40625 8.203125 
Q 42.578125 3.328125 38.25 0.953125 
Q 33.9375 -1.421875 27.875 -1.421875 
Q 17.96875 -1.421875 11.734375 6.484375 
Q 5.515625 14.40625 5.515625 27.296875 
Q 5.515625 40.1875 11.734375 48.09375 
Q 17.96875 56 27.875 56 
Q 33.9375 56 38.25 53.625 
Q 42.578125 51.265625 45.40625 46.390625 
z
M 14.796875 27.296875 
Q 14.796875 17.390625 18.875 11.75 
Q 22.953125 6.109375 30.078125 6.109375 
Q 37.203125 6.109375 41.296875 11.75 
Q 45.40625 17.390625 45.40625 27.296875 
Q 45.40625 37.203125 41.296875 42.84375 
Q 37.203125 48.484375 30.078125 48.484375 
Q 22.953125 48.484375 18.875 42.84375 
Q 14.796875 37.203125 14.796875 27.296875 
z
" id="DejaVuSans-64"/>
      <path d="M 41.109375 46.296875 
Q 39.59375 47.171875 37.8125 47.578125 
Q 36.03125 48 33.890625 48 
Q 26.265625 48 22.1875 43.046875 
Q 18.109375 38.09375 18.109375 28.8125 
L 18.109375 0 
L 9.078125 0 
L 9.078125 54.6875 
L 18.109375 54.6875 
L 18.109375 46.1875 
Q 20.953125 51.171875 25.484375 53.578125 
Q 30.03125 56 36.53125 56 
Q 37.453125 56 38.578125 55.875 
Q 39.703125 55.765625 41.0625 55.515625 
z
" id="DejaVuSans-72"/>
      <path d="M 9.421875 54.6875 
L 18.40625 54.6875 
L 18.40625 0 
L 9.421875 0 
z
M 9.421875 75.984375 
L 18.40625 75.984375 
L 18.40625 64.59375 
L 9.421875 64.59375 
z
" id="DejaVuSans-69"/>
      <path d="M 2.984375 54.6875 
L 12.5 54.6875 
L 29.59375 8.796875 
L 46.6875 54.6875 
L 56.203125 54.6875 
L 35.6875 0 
L 23.484375 0 
z
" id="DejaVuSans-76"/>
      <path d="M 56.203125 29.59375 
L 56.203125 25.203125 
L 14.890625 25.203125 
Q 15.484375 15.921875 20.484375 11.0625 
Q 25.484375 6.203125 34.421875 6.203125 
Q 39.59375 6.203125 44.453125 7.46875 
Q 49.3125 8.734375 54.109375 11.28125 
L 54.109375 2.78125 
Q 49.265625 0.734375 44.1875 -0.34375 
Q 39.109375 -1.421875 33.890625 -1.421875 
Q 20.796875 -1.421875 13.15625 6.1875 
Q 5.515625 13.8125 5.515625 26.8125 
Q 5.515625 40.234375 12.765625 48.109375 
Q 20.015625 56 32.328125 56 
Q 43.359375 56 49.78125 48.890625 
Q 56.203125 41.796875 56.203125 29.59375 
z
M 47.21875 32.234375 
Q 47.125 39.59375 43.09375 43.984375 
Q 39.0625 48.390625 32.421875 48.390625 
Q 24.90625 48.390625 20.390625 44.140625 
Q 15.875 39.890625 15.1875 32.171875 
z
" id="DejaVuSans-65"/>
     </defs>
     <g transform="translate(102.1 73.417969)scale(0.13 -0.13)">
      <use xlink:href="#DejaVuSans-64"/>
      <use x="63.476562" xlink:href="#DejaVuSans-72"/>
      <use x="104.589844" xlink:href="#DejaVuSans-69"/>
      <use x="132.373047" xlink:href="#DejaVuSans-76"/>
      <use x="191.552734" xlink:href="#DejaVuSans-65"/>
     </g>
    </g>
    <g id="PathCollection_4">
     <path d="M 78.7 92.249309 
C 79.538646 92.249309 80.343056 91.916111 80.936068 91.323099 
C 81.52908 90.730087 81.862278 89.925677 81.862278 89.087031 
C 81.862278 88.248385 81.52908 87.443975 80.936068 86.850963 
C 80.343056 86.257951 79.538646 85.924754 78.7 85.924754 
C 77.861354 85.924754 77.056944 86.257951 76.463932 86.850963 
C 75.87092 87.443975 75.537722 88.248385 75.537722 89.087031 
C 75.537722 89.925677 75.87092 90.730087 76.463932 91.323099 
C 77.056944 91.916111 77.861354 92.249309 78.7 92.249309 
z
" style="fill:none;stroke:#000000;"/>
    </g>
    <g id="text_14">
     <!-- walk -->
     <defs>
      <path d="M 4.203125 54.6875 
L 13.1875 54.6875 
L 24.421875 12.015625 
L 35.59375 54.6875 
L 46.1875 54.6875 
L 57.421875 12.015625 
L 68.609375 54.6875 
L 77.59375 54.6875 
L 63.28125 0 
L 52.6875 0 
L 40.921875 44.828125 
L 29.109375 0 
L 18.5 0 
z
" id="DejaVuSans-77"/>
      <path d="M 34.28125 27.484375 
Q 23.390625 27.484375 19.1875 25 
Q 14.984375 22.515625 14.984375 16.5 
Q 14.984375 11.71875 18.140625 8.90625 
Q 21.296875 6.109375 26.703125 6.109375 
Q 34.1875 6.109375 38.703125 11.40625 
Q 43.21875 16.703125 43.21875 25.484375 
L 43.21875 27.484375 
z
M 52.203125 31.203125 
L 52.203125 0 
L 43.21875 0 
L 43.21875 8.296875 
Q 40.140625 3.328125 35.546875 0.953125 
Q 30.953125 -1.421875 24.3125 -1.421875 
Q 15.921875 -1.421875 10.953125 3.296875 
Q 6 8.015625 6 15.921875 
Q 6 25.140625 12.171875 29.828125 
Q 18.359375 34.515625 30.609375 34.515625 
L 43.21875 34.515625 
L 43.21875 35.40625 
Q 43.21875 41.609375 39.140625 45 
Q 35.0625 48.390625 27.6875 48.390625 
Q 23 48.390625 18.546875 47.265625 
Q 14.109375 46.140625 10.015625 43.890625 
L 10.015625 52.203125 
Q 14.9375 54.109375 19.578125 55.046875 
Q 24.21875 56 28.609375 56 
Q 40.484375 56 46.34375 49.84375 
Q 52.203125 43.703125 52.203125 31.203125 
z
" id="DejaVuSans-61"/>
      <path d="M 9.421875 75.984375 
L 18.40625 75.984375 
L 18.40625 0 
L 9.421875 0 
z
" id="DejaVuSans-6c"/>
      <path d="M 9.078125 75.984375 
L 18.109375 75.984375 
L 18.109375 31.109375 
L 44.921875 54.6875 
L 56.390625 54.6875 
L 27.390625 29.109375 
L 57.625 0 
L 45.90625 0 
L 18.109375 26.703125 
L 18.109375 0 
L 9.078125 0 
z
" id="DejaVuSans-6b"/>
     </defs>
     <g transform="translate(102.1 92.499531)scale(0.13 -0.13)">
      <use xlink:href="#DejaVuSans-77"/>
      <use x="81.787109" xlink:href="#DejaVuSans-61"/>
      <use x="143.066406" xlink:href="#DejaVuSans-6c"/>
      <use x="170.849609" xlink:href="#DejaVuSans-6b"/>
     </g>
    </g>
   </g>
  </g>
 </g>
 <defs>
  <clipPath id="p5dd0b718e2">
   <rect height="326.16" width="334.8" x="54" y="51.84"/>
  </clipPath>
 </defs>
</svg>
